# xmcd
#
# Track frame offsets:
#	150
#	18064
#	35844
#	55543
#	76816
#	94849
#	114324
#	132903
#	145763
#	163954
#	180827
#	199417
#
# Disc length: 2891 seconds
#
# Revision: 4
# Processed by: cddbd v1.5.2PL0 Copyright (c) Steve Scherf et al.
# Submitted via: EasyCDDAExtractor 15.3.0.1
#
DISCID=950b490c
DTITLE=Cher - The Best Of Cher Volume 2 - 20th Century Masters - The Millenniu
DTITLE=m Collection
DYEAR=2004
DGENRE=Pop/Rock
TTITLE0=Believe
TTITLE1=All Or Nothing
TTITLE2=One By One (Junior Vasquez Vocal Edit)
TTITLE3=Love And Understanding
TTITLE4=Save Up All Your Tears
TTITLE5=Heart Of Stone (Remix)
TTITLE6=After All (Love Theme From Chances Are) (Duet With Peter Cetera)
TTITLE7=The Shoop Shoop Song (It's In His Kiss)
TTITLE8=If I Could Turn Back Time
TTITLE9=I Found Someone
TTITLE10=Just Like Jesse James
TTITLE11=We All Sleep Alone
EXTD=
EXTT0=
EXTT1=
EXTT2=
EXTT3=
EXTT4=
EXTT5=
EXTT6=
EXTT7=
EXTT8=
EXTT9=
EXTT10=
EXTT11=
PLAYORDER=
